<?xml version="1.0" encoding="utf-8"?><svg xml:space="preserve" viewBox="0 0 100 100" y="0px" x="0px" xmlns:xlink="http://www.w3.org/1999/xlink" xmlns="http://www.w3.org/2000/svg" id="圖層_1" version="1.1" width="200px" height="200px" style="width:100%;height:100%;background-size:initial;background-repeat-y:initial;background-repeat-x:initial;background-position-y:initial;background-position-x:initial;background-origin:initial;background-image:initial;background-color:rgb(255, 255, 255);background-clip:initial;background-attachment:initial;animation-play-state:paused" ><g class="ldl-scale" style="transform-origin:50% 50%;transform:rotate(0deg) scale(0.8, 0.8);animation-play-state:paused" ><g style="animation-play-state:paused" ><path d="M88.24,13.99H11.76c-2.31,0-4.18,1.87-4.18,4.18v15.21h84.83V18.17C92.42,15.86,90.55,13.99,88.24,13.99z" fill="#E15B64" style="fill:rgb(225, 91, 100);animation-play-state:paused" ></path>
<circle r="3.5" cy="23.95" cx="19.8" fill="#C33737" style="fill:rgb(195, 55, 55);animation-play-state:paused" ></circle>
<line y2="23.95" x2="19.8" y1="10.03" x1="19.8" stroke-miterlimit="10" stroke-linecap="round" stroke-width="4" stroke="#CCCCCC" fill="#333333" style="stroke:rgb(204, 204, 204);fill:rgb(51, 51, 51);animation-play-state:paused" ></line>
<circle r="3.5" cy="23.95" cx="34.91" fill="#C33737" style="fill:rgb(195, 55, 55);animation-play-state:paused" ></circle>
<line y2="23.95" x2="34.91" y1="10.03" x1="34.91" stroke-miterlimit="10" stroke-linecap="round" stroke-width="4" stroke="#CCCCCC" fill="#333333" style="stroke:rgb(204, 204, 204);fill:rgb(51, 51, 51);animation-play-state:paused" ></line>
<circle r="3.5" cy="23.95" cx="50.01" fill="#C33737" style="fill:rgb(195, 55, 55);animation-play-state:paused" ></circle>
<line y2="23.95" x2="50.01" y1="10.03" x1="50.01" stroke-miterlimit="10" stroke-linecap="round" stroke-width="4" stroke="#CCCCCC" fill="#333333" style="stroke:rgb(204, 204, 204);fill:rgb(51, 51, 51);animation-play-state:paused" ></line>
<circle r="3.5" cy="23.95" cx="65.11" fill="#C33737" style="fill:rgb(195, 55, 55);animation-play-state:paused" ></circle>
<line y2="23.95" x2="65.11" y1="10.03" x1="65.11" stroke-miterlimit="10" stroke-linecap="round" stroke-width="4" stroke="#CCCCCC" fill="#333333" style="stroke:rgb(204, 204, 204);fill:rgb(51, 51, 51);animation-play-state:paused" ></line>
<circle r="3.5" cy="23.95" cx="80.22" fill="#C33737" style="fill:rgb(195, 55, 55);animation-play-state:paused" ></circle>
<line y2="23.95" x2="80.22" y1="10.03" x1="80.22" stroke-miterlimit="10" stroke-linecap="round" stroke-width="4" stroke="#CCCCCC" fill="#333333" style="stroke:rgb(204, 204, 204);fill:rgb(51, 51, 51);animation-play-state:paused" ></line></g>
<g style="animation-play-state:paused" ><path d="M7.58,33.38v51.84c0,2.31,1.87,4.18,4.18,4.18h64.95h1.4l14.3-14.3v-1.4V33.38H7.58z" fill="#E0E0E0" style="fill:rgb(224, 224, 224);animation-play-state:paused" ></path>
<path d="M92.42,73.7H81.27c-2.52,0-4.55,2.04-4.55,4.55V89.4h1.4l14.3-14.3V73.7z" fill="#B3B3B3" style="fill:rgb(179, 179, 179);animation-play-state:paused" ></path></g>
<g style="animation-play-state:paused" ><g style="animation-play-state:paused" ><path d="M49.83,77.67c-6.83,0-12.18-4.2-12.18-9.55h4.94c0,2.5,3.32,4.62,7.24,4.62c2.94,0,7.91-0.97,7.91-4.62 c0-4.39-6.59-4.62-7.91-4.62c-7.25,0-12.51-4.02-12.51-9.55c0-5.71,5.03-9.55,12.51-9.55c6.83,0,12.18,4.2,12.18,9.55h-4.94 c0-2.5-3.32-4.62-7.24-4.62c-3.49,0-7.57,1.21-7.57,4.62c0,3.03,3.81,4.62,7.57,4.62c7.8,0,12.84,3.75,12.84,9.55 C62.68,73.83,57.52,77.67,49.83,77.67z" fill="#FBB03B" style="fill:rgb(251, 176, 59);animation-play-state:paused" ></path></g>
<g style="animation-play-state:paused" ><rect height="40" width="5.12" fill="#FBB03B" y="41.03" x="47.27" style="fill:rgb(251, 176, 59);animation-play-state:paused" ></rect></g></g>
<metadata xmlns:d="https://loading.io/stock/" style="animation-play-state:paused" ><d:name style="animation-play-state:paused" >calendar</d:name>


<d:tags style="animation-play-state:paused" >calendar,schedule,plan,business,celebration,remark,money,payday,salary</d:tags>


<d:license style="animation-play-state:paused" >by</d:license>


<d:slug style="animation-play-state:paused" >ggxxh2</d:slug></metadata></g><!-- generated by https://loading.io/ --></svg>